# xmcd
# Copyright (C) 1995-1998 Ti Kan
#
# Track frame offsets:
#       150
#       1427
#       19333
#       40301
#       57824
#       80331
#
# Disc length: 1790 seconds
#
# Revision: 0
# Processed by: cddbd v1.4PL0 Copyright (c) Steve Scherf et al.
# Submitted via: CD-Transfer v1.0
#
DISCID=4006fc06
DTITLE=Kontrast - Kontrast
DYEAR=2001
DGENRE=
TTITLE0=Intro
TTITLE1=Jakob
TTITLE2=Freiheitsblues
TTITLE3=D' Schwiz Lacht Mit
TTITLE4=I Bi Wider Da
TTITLE5=Bier Nämer Scho
EXTD=
EXTT0=
EXTT1=
EXTT2=
EXTT3=
EXTT4=
EXTT5=
PLAYORDER=
